<svg width="45" height="46" viewBox="0 0 45 46" fill="none" xmlns="http://www.w3.org/2000/svg">
<path d="M44.5 22.8271C44.5 34.9774 34.6503 44.8271 22.5 44.8271C10.3497 44.8271 0.5 34.9774 0.5 22.8271C0.5 10.6769 10.3497 0.827148 22.5 0.827148C34.6503 0.827148 44.5 10.6769 44.5 22.8271Z" fill="#38B6FF" stroke="url(#paint0_linear_2011_939)"/>
<path d="M26 20.3271C26.5523 20.3271 27 19.8794 27 19.3271C27 18.7749 26.5523 18.3271 26 18.3271C25.4477 18.3271 25 18.7749 25 19.3271C25 19.8794 25.4477 20.3271 26 20.3271Z" fill="white"/>
<path fill-rule="evenodd" clip-rule="evenodd" d="M19 22.8271C19 24.7574 20.5698 26.3271 22.5 26.3271C24.4303 26.3271 26 24.7574 26 22.8271C26 20.8969 24.4303 19.3271 22.5 19.3271C20.5698 19.3271 19 20.8969 19 22.8271ZM21 23.3271C21 22.2241 21.897 21.3271 23 21.3271C24.103 21.3271 25 22.2241 25 23.3271C25 24.4301 24.103 25.3271 23 25.3271C21.897 25.3271 21 24.4301 21 23.3271Z" fill="white"/>
<path fill-rule="evenodd" clip-rule="evenodd" d="M19.25 29.3271H25.75C27.4205 29.3271 29 27.7476 29 26.0771V19.5771C29 17.9066 27.4205 16.3271 25.75 16.3271H19.25C17.5795 16.3271 16 17.9066 16 19.5771V26.0771C16 27.7476 17.5795 29.3271 19.25 29.3271ZM18 19.9938C18 19.2146 18.8875 18.3271 19.6667 18.3271H26.3333C27.1125 18.3271 28 19.2146 28 19.9938V26.6605C28 27.4396 27.1125 28.3271 26.3333 28.3271H19.6667C18.8725 28.3271 18 27.4546 18 26.6605V19.9938Z" fill="white"/>
<defs>
<linearGradient id="paint0_linear_2011_939" x1="22.5" y1="0.327148" x2="22.5" y2="45.3271" gradientUnits="userSpaceOnUse">
<stop offset="0.518502" stop-color="white" stop-opacity="0"/>
<stop offset="1" stop-color="#38B6FF"/>
</linearGradient>
</defs>
</svg>
