<svg width="45" height="46" viewBox="0 0 45 46" fill="none" xmlns="http://www.w3.org/2000/svg">
<path d="M44.5 22.8271C44.5 34.9774 34.6503 44.8271 22.5 44.8271C10.3497 44.8271 0.5 34.9774 0.5 22.8271C0.5 10.6769 10.3497 0.827148 22.5 0.827148C34.6503 0.827148 44.5 10.6769 44.5 22.8271Z" fill="#38B6FF" stroke="url(#paint0_linear_2011_950)"/>
<path fill-rule="evenodd" clip-rule="evenodd" d="M29.2659 17.6702C29.951 17.8516 30.4906 18.383 30.6745 19.0566C31.0159 20.286 30.9999 22.8491 30.9999 22.8491C30.9999 22.8491 30.9975 25.3982 30.6665 26.6267C30.4803 27.2995 29.9382 27.8302 29.2539 28.0108C28.002 28.3326 22.9935 28.3271 22.9935 28.3271C22.9935 28.3271 17.9987 28.3216 16.734 27.9841C16.0481 27.8027 15.5084 27.2713 15.3246 26.5985C14.9968 25.3817 15 22.8193 15 22.8193C15 22.8193 15.0032 20.2695 15.3334 19.0401C15.5188 18.3673 16.0736 17.8241 16.7452 17.6443C17.9979 17.3217 23.0055 17.3272 23.0055 17.3272C23.0055 17.3272 28.014 17.3326 29.2659 17.6702ZM21.0038 20.3271L21 25.3271L25 22.8313L21.0038 20.3271Z" fill="white"/>
<defs>
<linearGradient id="paint0_linear_2011_950" x1="22.5" y1="0.327148" x2="22.5" y2="45.3271" gradientUnits="userSpaceOnUse">
<stop offset="0.518502" stop-color="white" stop-opacity="0"/>
<stop offset="1" stop-color="#38B6FF"/>
</linearGradient>
</defs>
</svg>
